<svg width="34" height="27" viewBox="0 0 34 27" fill="none" xmlns="http://www.w3.org/2000/svg">
<path d="M32.3 9.76596H28.9V1.7234C28.8995 1.26649 28.7202 0.828447 28.4015 0.505361C28.0828 0.182275 27.6507 0.000532133 27.2 0H1.7C1.24929 0.000532133 0.817196 0.182275 0.498498 0.505361C0.1798 0.828447 0.000524907 1.26649 0 1.7234V19.3883C0.000524907 19.8452 0.1798 20.2833 0.498498 20.6063C0.817196 20.9294 1.24929 21.1112 1.7 21.1117H13.8833V24.7021H9.63333V27H20.4V24.7021H16.15V21.1117H22.6667V25.2766C22.6672 25.7335 22.8464 26.1716 23.1651 26.4947C23.4838 26.8177 23.916 26.9995 24.3667 27H32.3C32.7507 26.9995 33.1828 26.8177 33.5015 26.4947C33.8202 26.1716 33.9995 25.7335 34 25.2766V11.4894C33.9995 11.0324 33.8202 10.5944 33.5015 10.2713C33.1828 9.94821 32.7507 9.76647 32.3 9.76596ZM22.6667 11.4894V18.8138H2.26667V2.29787H26.6333V9.76596H24.3667C23.916 9.76647 23.4838 9.94821 23.1651 10.2713C22.8464 10.5944 22.6672 11.0324 22.6667 11.4894ZM31.7333 24.7021H24.9333V12.0638H31.7333V24.7021Z" fill="#C8C8C8"/>
</svg>
