<svg width="8" height="7" viewBox="0 0 8 7" fill="none" xmlns="http://www.w3.org/2000/svg">
<path d="M7.85743 1.32946L7.15248 0.639535C7.05743 0.546512 6.93861 0.5 6.80396 0.5C6.66931 0.5 6.5505 0.546512 6.45545 0.639535L3.06535 3.95736L1.55248 2.46899C1.45743 2.37597 1.33861 2.32946 1.20396 2.32946C1.06931 2.32946 0.950495 2.37597 0.855446 2.46899L0.150495 3.15891C0.0475248 3.25194 0 3.36822 0 3.5C0 3.63178 0.0475247 3.74806 0.142574 3.84109L2.01188 5.67054L2.71683 6.36047C2.81188 6.45349 2.93069 6.5 3.06535 6.5C3.2 6.5 3.31881 6.45349 3.41386 6.36047L4.11881 5.67054L7.85743 2.01163C7.95248 1.9186 8 1.80233 8 1.67054C8 1.53876 7.95248 1.42248 7.85743 1.32946Z" fill="white"/>
</svg>
