<svg width="23" height="27" viewBox="0 0 23 27" fill="none" xmlns="http://www.w3.org/2000/svg">
<path d="M21.7895 27H18.1579C17.4885 27 16.9474 26.4514 16.9474 25.7727V23.3182C16.9474 22.6395 17.4885 22.0909 18.1579 22.0909H20.5789V14.7273H12.1053V22.0909H13.3158C13.984 22.0909 14.5263 22.6395 14.5263 23.3182V25.7727C14.5263 26.4514 13.984 27 13.3158 27H9.68421C9.01479 27 8.47368 26.4514 8.47368 25.7727V23.3182C8.47368 22.6395 9.01479 22.0909 9.68421 22.0909H10.8947V14.7273H2.42105V22.0909H4.84211C5.51032 22.0909 6.05263 22.6395 6.05263 23.3182V25.7727C6.05263 26.4514 5.51032 27 4.84211 27H1.21053C0.541105 27 0 26.4514 0 25.7727V23.3182C0 22.6395 0.541105 22.0909 1.21053 22.0909V13.5H10.8947V4.90909H9.68421C9.01479 4.90909 8.47368 4.35927 8.47368 3.68182V1.22727C8.47368 0.549818 9.01479 0 9.68421 0H13.3158C13.984 0 14.5263 0.549818 14.5263 1.22727V3.68182C14.5263 4.35927 13.984 4.90909 13.3158 4.90909H12.1053V13.5H21.7895V22.0909C22.4577 22.0909 23 22.6395 23 23.3182V25.7727C23 26.4514 22.4577 27 21.7895 27Z" fill="#C8C8C8"/>
</svg>
