<svg width="55" height="69" viewBox="0 0 55 69" fill="none" xmlns="http://www.w3.org/2000/svg">
<g clip-path="url(#clip0_81_3665)">
<path d="M25.2998 27.9448L54.6765 39.5253C54.6765 39.5253 54.6765 43.736 51.4714 53.21C50.8511 55.0437 50.1241 56.7591 49.3551 58.3333C45.7491 65.7149 37.5372 69.0001 29.2723 69.0001C19.1212 69.0001 9.2622 64.1089 5.00879 54.9601C4.16426 53.1435 3.46129 51.391 3.04189 49.8758C1.09941 42.8579 1.26111 35.84 1.26111 35.84L25.2998 27.9448Z" fill="#FECA42"/>
<path d="M7.66807 21.6299H7.66806C4.12778 21.6299 1.25781 24.4786 1.25781 27.9927V34.2151C1.25781 37.7292 4.12778 40.578 7.66806 40.578H7.66807C11.2083 40.578 14.0783 37.7292 14.0783 34.2151V27.9927C14.0783 24.4786 11.2083 21.6299 7.66807 21.6299Z" fill="#FECA42"/>
<path d="M30.2961 0.747484L30.2961 0.747485C27.1079 1.05064 24.732 3.86519 24.9894 7.03396L27.0502 32.4118C27.3075 35.5806 30.1006 37.9037 33.2887 37.6005C36.4768 37.2974 38.8527 34.4828 38.5954 31.314L36.5346 5.93616C36.2773 2.76738 33.4842 0.444333 30.2961 0.747484Z" fill="#FECA42"/>
<path d="M20.4923 19.5244H20.4923C16.952 19.5244 14.082 22.3732 14.082 25.8873V32.1096C14.082 35.6237 16.952 38.4725 20.4923 38.4725H20.4923C24.0326 38.4725 26.9025 35.6237 26.9025 32.1096V25.8873C26.9025 22.3732 24.0326 19.5244 20.4923 19.5244Z" fill="#FECA42"/>
<path d="M1.25781 30.5772V34.8155C1.25781 38.2886 4.09428 41.104 7.59323 41.104C11.0106 41.104 13.8121 38.4138 13.9252 35.0236L14.0752 30.5278" stroke="#222222" stroke-width="1.96667" stroke-linecap="round"/>
<path d="M14.082 25.9464V32.1104C14.082 35.6245 16.952 38.4733 20.4923 38.4733C24.0325 38.4733 26.9025 35.6245 26.9025 32.1104V23.7358" stroke="#222222" stroke-width="1.96667" stroke-linecap="round"/>
<path d="M48.1603 0.925834L48.1602 0.925829C44.8637 0.414508 41.8388 2.66186 41.4038 5.94544L38.128 30.6753C37.6931 33.9589 40.0128 37.0353 43.3093 37.5466L43.3093 37.5466C46.6058 38.0579 49.6308 35.8106 50.0657 32.527L53.3416 7.7971C53.7765 4.51353 51.4568 1.43716 48.1603 0.925834Z" fill="#FECA42"/>
<path d="M47.6564 46.193C51.5611 46.193 54.7266 43.051 54.7266 39.1751C54.7266 35.2993 51.5611 32.1572 47.6564 32.1572H29.7451C25.8404 32.1572 22.6749 35.2993 22.6749 39.1751C22.6749 43.051 25.8404 46.193 29.7451 46.193H47.6564Z" fill="#FECA42"/>
<path d="M51.1238 34.3275C51.5379 34.353 51.8944 34.0405 51.92 33.6294C51.9457 33.2185 51.6309 32.8646 51.2168 32.8391L51.1238 34.3275ZM36.9251 45.8644L37.6686 45.9706L37.7654 45.3031L37.1061 45.1407L36.9251 45.8644ZM34.401 58.0395C34.3419 58.4471 34.6269 58.8251 35.0375 58.8837C35.4481 58.9424 35.8289 58.6595 35.888 58.2519L34.401 58.0395ZM51.2168 32.8391C48.8629 32.6941 45.9922 32.3546 42.9405 32.043C39.9058 31.733 36.711 31.453 33.7712 31.439C30.8459 31.4251 28.0965 31.6728 25.9852 32.4636C23.8429 33.2659 22.2542 34.6773 21.9357 36.9913L23.4242 37.1932C23.6441 35.5955 24.6988 34.5392 26.5155 33.8587C28.3632 33.1667 30.8883 32.9165 33.764 32.9302C36.6251 32.9438 39.7575 33.217 42.7867 33.5263C45.7991 33.834 48.7293 34.18 51.1238 34.3275L51.2168 32.8391ZM21.9357 36.9913C21.6818 38.8367 22.2412 40.3349 23.3002 41.5217C24.3336 42.6799 25.8192 43.5183 27.406 44.1565C30.549 45.4205 34.474 46.0289 36.7442 46.588L37.1061 45.1407C34.6279 44.5303 30.9852 43.9869 27.9701 42.7744C26.4779 42.1743 25.2369 41.4432 24.4248 40.533C23.6382 39.6513 23.2331 38.582 23.4242 37.1932L21.9357 36.9913ZM36.1816 45.7581L34.401 58.0395L35.888 58.2519L37.6686 45.9706L36.1816 45.7581Z" fill="#222222"/>
</g>
<defs>
<clipPath id="clip0_81_3665">
<rect width="55" height="69" fill="white"/>
</clipPath>
</defs>
</svg>
