<svg width="28" height="26" viewBox="0 0 28 26" fill="none" xmlns="http://www.w3.org/2000/svg">
<path d="M21.1133 0H6.97585C3.41869 0 0.5 2.67462 0.5 5.99486L0.500001 16.3244C0.500001 19.6446 3.41869 22.3193 6.97585 22.3193H8.77445C9.44637 22.3193 10.1136 22.5015 10.6355 22.9274C11.2781 23.4516 11.8523 24.0384 12.4335 24.5935C13.3886 25.5057 14.8162 25.5398 15.7759 24.6323C16.4104 24.0324 17.0231 23.3926 17.7774 22.8331C18.2703 22.4674 18.8814 22.3193 19.4937 22.3193H21.0221C24.5792 22.3193 27.4979 19.6446 27.4979 16.3244V5.99486C27.5891 2.67462 24.6704 0 21.1133 0Z" fill="#D51228"/>
<path d="M18.7381 7.63235C16.4578 5.51105 13.8127 8.92358 13.8127 8.92358C13.8127 8.92358 11.2588 5.51105 8.88729 7.63235C6.3334 9.9381 8.79609 14.4574 13.8127 16.8554C18.9205 14.4574 21.292 10.0304 18.7381 7.63235Z" fill="white"/>
</svg>
