<svg width="2" height="4" viewBox="0 0 2 4" fill="none" xmlns="http://www.w3.org/2000/svg">
<path d="M1.84509 0.679196C1.74182 0.758695 1.6179 0.798445 1.47332 0.798445C1.32874 0.798445 1.20367 0.759559 1.09811 0.681789C0.994837 0.604018 0.943201 0.509829 0.943201 0.399222C0.943201 0.288615 0.994837 0.195291 1.09811 0.119248C1.19908 0.0397494 1.32301 0 1.46988 0C1.61675 0 1.74182 0.0397494 1.84509 0.119248C1.94836 0.198747 2 0.292072 2 0.399222C2 0.506373 1.94836 0.599698 1.84509 0.679196ZM0.640275 1.80687C0.640275 1.59775 0.44062 1.59948 0.0413081 1.81205L0 1.67466C0.135399 1.55023 0.308663 1.43271 0.519793 1.3221C0.730924 1.21149 0.938612 1.15705 1.14286 1.15878C1.47562 1.15878 1.642 1.31778 1.642 1.63577C1.642 1.75329 1.62364 1.86822 1.58692 1.98056L1.21859 3.19637C1.20023 3.25686 1.19105 3.31216 1.19105 3.36228C1.19105 3.45733 1.23924 3.50486 1.33563 3.50486C1.43201 3.50486 1.58118 3.45215 1.78313 3.34673L1.82444 3.48412C1.68904 3.60855 1.51578 3.72521 1.30465 3.83409C1.09352 3.94297 0.886976 3.99827 0.685026 4C0.352266 4 0.184739 3.84187 0.182444 3.5256C0.182444 3.42709 0.204246 3.31043 0.247849 3.17563L0.612737 1.95982C0.631096 1.90624 0.640275 1.85526 0.640275 1.80687Z" fill="white"/>
</svg>
