<svg width="151" height="63" viewBox="0 0 151 63" fill="none" xmlns="http://www.w3.org/2000/svg">
<g clip-path="url(#clip0_35_575)">
<path d="M29.1316 42.3503C30.5947 40.8001 33.1028 39.9545 35.9593 39.9545C39.9305 39.9545 42.2993 42.3503 42.2993 46.4374V55.88H37.9798V54.4706C37.3527 55.2458 35.6806 56.0914 33.7995 56.0914C30.3857 56.0914 28.1562 54.0478 28.1562 51.0178C28.1562 47.424 31.5004 45.8737 35.1929 45.8737C36.238 45.8737 37.3527 46.0146 37.9798 46.2965C37.9798 44.6757 37.1437 44.0415 35.4716 44.0415C33.7995 44.0415 32.8242 44.3939 31.2217 45.5213L29.1316 42.3503ZM37.9798 50.595V49.8903C37.4921 49.6789 36.5167 49.4675 35.611 49.4675C33.8692 49.4675 32.6151 49.8903 32.6151 51.0178C32.6151 51.8634 33.3815 52.3566 34.7053 52.3566C36.1683 52.3566 37.4921 51.5815 37.9798 50.595Z" fill="white"/>
<path d="M44.8744 40.3058H49.1939V40.94C49.5423 40.5172 50.5873 40.0239 51.5627 40.0239C53.1651 40.0239 53.9315 40.5172 54.5585 41.3628L52.3291 44.8157C52.1201 44.3929 51.493 44.1815 50.9357 44.1815C50.239 44.1815 49.4726 44.4633 49.1242 45.8022V55.879H44.8047V40.3058H44.8744Z" fill="white"/>
<path d="M54.9793 42.3503C56.4424 40.8001 58.9505 39.9545 61.807 39.9545C65.7782 39.9545 68.147 42.3503 68.147 46.4374V55.88H63.8274V54.4706C63.2004 55.2458 61.5283 56.0914 59.6472 56.0914C56.2334 56.0914 54.0039 54.0478 54.0039 51.0178C54.0039 47.424 57.3481 45.8737 61.0406 45.8737C62.0857 45.8737 63.2004 46.0146 63.8274 46.2965C63.8274 44.6757 62.9914 44.0415 61.3193 44.0415C59.6472 44.0415 58.6718 44.3939 57.0694 45.5213L54.9793 42.3503ZM63.7577 50.595V49.8903C63.27 49.6789 62.2947 49.4675 61.3889 49.4675C59.6472 49.4675 58.3931 49.8903 58.3931 51.0178C58.3931 51.8634 59.1595 52.3566 60.4832 52.3566C61.9463 52.3566 63.27 51.5815 63.7577 50.595Z" fill="white"/>
<path d="M81.1082 54.6833C80.5508 55.3175 79.2271 56.1631 77.2066 56.1631C72.9568 56.1631 69.9609 53.3444 69.9609 48.1299C69.9609 43.2677 73.3748 39.9557 77.4853 39.9557C79.6451 39.9557 80.6205 40.3785 81.1082 40.7308V34.0365H85.4277V55.9517H81.1082V54.6833ZM81.1082 50.2439V45.1703C80.6205 44.5361 79.8541 43.9723 78.391 43.9723C76.1616 43.9723 74.3502 45.3817 74.3502 48.0594C74.3502 50.5962 75.9526 52.076 78.1124 52.076C79.2271 52.076 80.5508 51.3713 81.1082 50.2439Z" fill="white"/>
<path d="M90.5088 33.9648C91.9022 33.9648 92.9472 34.8809 92.9472 36.1493C92.9472 37.4177 91.9719 38.4043 90.5088 38.4043C88.976 38.4043 88.0703 37.4882 88.0703 36.1493C88.0703 34.9514 89.0457 33.9648 90.5088 33.9648ZM88.349 40.3069H92.6686V55.9505H88.349V40.3069Z" fill="white"/>
<path d="M110.086 54.5401C110.086 59.7546 107.299 62.1505 102.771 62.1505C99.1477 62.1505 96.5699 60.5298 95.5945 57.852L99.3567 56.2313C99.8444 57.2178 100.889 58.0634 102.353 58.0634C104.861 58.0634 105.766 57.0064 105.766 55.3857V54.681C105.279 55.4562 104.164 56.0904 102.283 56.0904C97.9633 56.0904 94.8281 53.3422 94.8281 47.9867C94.8281 42.9131 98.451 40.0239 102.283 40.0239C104.164 40.0239 105.07 40.3763 105.766 40.8695V40.2353H110.086V54.5401ZM105.766 50.3826V45.168C105.279 44.5338 104.443 44.1815 102.98 44.1815C100.959 44.1815 99.2173 45.5203 99.2173 48.1981C99.2173 50.8054 100.611 52.1442 102.98 52.1442C104.443 52.0738 105.418 51.2986 105.766 50.3826Z" fill="white"/>
<path d="M134.75 55.9494H130.43V46.7887C130.43 45.3089 130.012 44.111 128.41 44.111C127.434 44.111 126.389 44.7452 125.832 46.0136V55.9494H121.512V46.0841C121.512 44.8861 120.885 44.111 119.701 44.111C118.307 44.111 117.402 44.9566 116.984 46.0136V55.9494H112.664V40.3058H116.984V41.3628C117.82 40.4467 119.213 40.0239 120.676 40.0239C122.418 40.0239 123.602 40.5877 124.647 41.7151C125.832 40.5172 126.877 40.0239 128.688 40.0239C132.52 40.0239 134.68 41.9265 134.68 45.5203V55.9494H134.75Z" fill="white"/>
<path d="M137.401 42.3503C138.864 40.8001 141.372 39.9545 144.229 39.9545C148.2 39.9545 150.569 42.3503 150.569 46.4374V55.88H146.249V54.4706C145.622 55.2458 143.95 56.0914 142.069 56.0914C138.655 56.0914 136.426 54.0478 136.426 51.0178C136.426 47.424 139.77 45.8737 143.462 45.8737C144.508 45.8737 145.622 46.0146 146.249 46.2965C146.249 44.6757 145.413 44.0415 143.741 44.0415C142.069 44.0415 141.094 44.3939 139.491 45.5213L137.401 42.3503ZM146.18 50.595V49.8903C145.692 49.6789 144.717 49.4675 143.811 49.4675C142.069 49.4675 140.815 49.8903 140.815 51.0178C140.815 51.8634 141.581 52.3566 142.905 52.3566C144.368 52.3566 145.692 51.5815 146.18 50.595Z" fill="white"/>
<path d="M66.2687 16.4188V16.6302C66.2687 25.6499 58.9533 33.049 50.0355 33.049H33.1753L23.9092 42.421V23.6769H50.0355C53.8674 23.6769 57.0026 20.5058 57.0026 16.6302V16.4188C57.0026 12.5431 53.8674 9.37209 50.0355 9.37209H9.76614L0.5 0H50.0355C59.023 0 66.2687 7.39902 66.2687 16.4188Z" fill="#D51228"/>
<path d="M19.0318 23.6763V47.3531L9.76562 56.7252V23.6763H19.0318Z" fill="#D51228"/>
<path d="M66.2687 16.4188V16.6302C66.2687 25.6499 58.9533 33.049 50.0355 33.049H33.1753L23.9092 42.421V23.6769H50.0355C53.8674 23.6769 57.0026 20.5059 57.0026 16.6302V16.4188C57.0026 12.5431 53.8674 9.37209 50.0355 9.37209H9.76614L0.5 0H50.0355C59.023 0 66.2687 7.39902 66.2687 16.4188Z" fill="#D51228"/>
<path d="M143.054 26.1113H81.9462C78.0976 26.1113 75 23.2189 75 19.6253V10.5974C75 7.00376 78.0976 4.11133 81.9462 4.11133H143.054C146.902 4.11133 150 7.00376 150 10.5974V19.7129C150 23.2189 146.902 26.1113 143.054 26.1113Z" fill="#D51228"/>
<path d="M85.7563 17.3855V19.2081C85.2571 19.3371 84.7735 19.4017 84.3055 19.4017C83.328 19.4017 82.5688 19.1543 82.028 18.6597C81.4872 18.1543 81.2168 17.4017 81.2168 16.4017V13.0629H80V11.2242H81.2168V9.2081H83.3228V11.2242H85.5067V13.0629H83.3228V16.2081C83.3228 16.6597 83.4372 16.9823 83.666 17.1758C83.8948 17.3586 84.2587 17.45 84.7579 17.45C84.8827 17.45 85.2155 17.4285 85.7563 17.3855Z" fill="white"/>
<path d="M94.2309 15.95H88.8178C88.9426 16.4554 89.1922 16.8479 89.5666 17.1275C89.9514 17.3963 90.4246 17.5307 90.9862 17.5307C91.7454 17.5307 92.4629 17.2619 93.1389 16.7242L94.0125 18.2081C93.0973 19.0038 92.0678 19.4017 90.9238 19.4017C90.123 19.4017 89.4002 19.2189 88.7554 18.8533C88.1106 18.4877 87.6062 17.9877 87.2422 17.3533C86.8782 16.7081 86.6962 15.9984 86.6962 15.2242C86.6962 14.45 86.873 13.7457 87.2266 13.1113C87.5802 12.4662 88.0638 11.9608 88.6774 11.5952C89.3014 11.2296 89.9878 11.0468 90.7366 11.0468C91.4438 11.0468 92.073 11.2135 92.6241 11.5468C93.1753 11.8694 93.6017 12.3156 93.9033 12.8855C94.2153 13.4447 94.3713 14.0683 94.3713 14.7565C94.3713 15.1436 94.3245 15.5414 94.2309 15.95ZM90.6586 12.8049C90.2114 12.8049 89.8214 12.95 89.4886 13.2404C89.1558 13.5307 88.9322 13.9232 88.8178 14.4178H92.3278C92.3174 13.9232 92.151 13.5307 91.8286 13.2404C91.5062 12.95 91.1162 12.8049 90.6586 12.8049Z" fill="white"/>
<path d="M105 11.0468C105.905 11.0468 106.617 11.3425 107.137 11.9339C107.657 12.5146 107.917 13.2887 107.917 14.2565V19.2081H105.811V14.5629C105.811 14.0898 105.686 13.7135 105.437 13.4339C105.187 13.1543 104.854 13.0146 104.438 13.0146C104.022 13.0146 103.679 13.1543 103.409 13.4339C103.149 13.7135 103.019 14.0737 103.019 14.5146V19.2081H100.913V14.5629C100.913 14.0898 100.788 13.7135 100.538 13.4339C100.289 13.1543 99.9561 13.0146 99.5401 13.0146C99.1137 13.0146 98.7705 13.1543 98.5105 13.4339C98.2505 13.7135 98.1205 14.0898 98.1205 14.5629V19.2081H96.0145V11.2242H97.9489V11.9339C98.2089 11.6543 98.5261 11.4393 98.9005 11.2887C99.2749 11.1275 99.6857 11.0468 100.133 11.0468C101.152 11.0468 101.916 11.4285 102.426 12.192C102.728 11.8371 103.097 11.5576 103.534 11.3533C103.981 11.149 104.47 11.0468 105 11.0468Z" fill="white"/>
<path d="M114.338 11.0468C115.056 11.0468 115.695 11.2296 116.257 11.5952C116.829 11.95 117.276 12.4447 117.598 13.0791C117.921 13.7027 118.082 14.4124 118.082 15.2081C118.082 16.0038 117.921 16.7189 117.598 17.3533C117.276 17.9877 116.829 18.4877 116.257 18.8533C115.695 19.2189 115.056 19.4017 114.338 19.4017C113.87 19.4017 113.439 19.321 113.043 19.1597C112.648 18.9877 112.31 18.7457 112.029 18.4339V22.1113H109.923V11.2242H111.858V12.2242C112.118 11.8479 112.461 11.5576 112.887 11.3533C113.324 11.149 113.808 11.0468 114.338 11.0468ZM113.948 17.4178C114.51 17.4178 114.983 17.2189 115.368 16.821C115.752 16.4124 115.945 15.8801 115.945 15.2242C115.945 14.5576 115.752 14.0253 115.368 13.6275C114.993 13.2189 114.52 13.0146 113.948 13.0146C113.418 13.0146 112.96 13.2027 112.575 13.5791C112.191 13.9447 111.998 14.4877 111.998 15.2081C111.998 15.9178 112.185 16.4662 112.56 16.8533C112.945 17.2296 113.407 17.4178 113.948 17.4178Z" fill="white"/>
<path d="M119.734 7.11133H121.84V19.2081H119.734V7.11133Z" fill="white"/>
<path d="M127.09 11.0468C128.099 11.0468 128.9 11.3425 129.493 11.9339C130.096 12.5146 130.398 13.3586 130.398 14.4662V19.2081H128.463V18.4339C128.182 18.735 127.839 18.9715 127.434 19.1436C127.038 19.3156 126.596 19.4017 126.108 19.4017C125.286 19.4017 124.636 19.1812 124.158 18.7404C123.679 18.2887 123.44 17.7135 123.44 17.0146C123.44 16.2941 123.7 15.7296 124.22 15.321C124.75 14.9017 125.463 14.692 126.357 14.692H128.292V14.3371C128.292 13.8963 128.167 13.5522 127.917 13.3049C127.678 13.0576 127.324 12.9339 126.856 12.9339C126.461 12.9339 126.108 13.0253 125.796 13.2081C125.484 13.3801 125.156 13.6543 124.813 14.0307L123.721 12.692C124.615 11.5952 125.738 11.0468 127.09 11.0468ZM126.669 17.8049C127.127 17.8049 127.512 17.6597 127.824 17.3694C128.136 17.0683 128.292 16.6866 128.292 16.2242V16.1275H126.638C126.295 16.1275 126.03 16.1973 125.842 16.3371C125.655 16.4662 125.562 16.6651 125.562 16.9339C125.562 17.2027 125.66 17.4178 125.858 17.5791C126.066 17.7296 126.336 17.8049 126.669 17.8049Z" fill="white"/>
<path d="M137.385 17.3855V19.2081C136.886 19.3371 136.402 19.4017 135.934 19.4017C134.957 19.4017 134.197 19.1543 133.657 18.6597C133.116 18.1543 132.845 17.4017 132.845 16.4017V13.0629H131.629V11.2242H132.845V9.2081H134.951V11.2242H137.135V13.0629H134.951V16.2081C134.951 16.6597 135.066 16.9823 135.295 17.1758C135.523 17.3586 135.887 17.45 136.387 17.45C136.511 17.45 136.844 17.4285 137.385 17.3855Z" fill="white"/>
<path d="M145.86 15.95H140.446C140.571 16.4554 140.821 16.8479 141.195 17.1275C141.58 17.3963 142.053 17.5307 142.615 17.5307C143.374 17.5307 144.092 17.2619 144.768 16.7242L145.641 18.2081C144.726 19.0038 143.696 19.4017 142.552 19.4017C141.752 19.4017 141.029 19.2189 140.384 18.8533C139.739 18.4877 139.235 17.9877 138.871 17.3533C138.507 16.7081 138.325 15.9984 138.325 15.2242C138.325 14.45 138.502 13.7457 138.855 13.1113C139.209 12.4662 139.692 11.9608 140.306 11.5952C140.93 11.2296 141.616 11.0468 142.365 11.0468C143.072 11.0468 143.702 11.2135 144.253 11.5468C144.804 11.8694 145.23 12.3156 145.532 12.8855C145.844 13.4447 146 14.0683 146 14.7565C146 15.1436 145.953 15.5414 145.86 15.95ZM142.287 12.8049C141.84 12.8049 141.45 12.95 141.117 13.2404C140.784 13.5307 140.561 13.9232 140.446 14.4178H143.956C143.946 13.9232 143.78 13.5307 143.457 13.2404C143.135 12.95 142.745 12.8049 142.287 12.8049Z" fill="white"/>
</g>
<defs>
<clipPath id="clip0_35_575">
<rect width="150" height="62.2222" fill="white" transform="translate(0.5)"/>
</clipPath>
</defs>
</svg>
