<svg width="116" height="48" viewBox="0 0 116 48" fill="none" xmlns="http://www.w3.org/2000/svg">
<g clip-path="url(#clip0_25_354)">
<path d="M22.1449 32.6705C23.2764 31.4746 25.216 30.8223 27.425 30.8223C30.4961 30.8223 32.3279 32.6705 32.3279 35.8234V43.1077H28.9875V42.0205C28.5026 42.6184 27.2095 43.2707 25.7548 43.2707C23.1147 43.2707 21.3906 41.6943 21.3906 39.3568C21.3906 36.5844 23.9768 35.3885 26.8323 35.3885C27.6405 35.3885 28.5026 35.4972 28.9875 35.7147C28.9875 34.4644 28.3409 33.9752 27.0478 33.9752C25.7548 33.9752 25.0005 34.247 23.7613 35.1167L22.1449 32.6705ZM28.9875 39.0306V38.487C28.6103 38.324 27.856 38.1609 27.1556 38.1609C25.8086 38.1609 24.8388 38.487 24.8388 39.3568C24.8388 40.0091 25.4315 40.3897 26.4552 40.3897C27.5866 40.3897 28.6103 39.7917 28.9875 39.0306Z" fill="#313131"/>
<path d="M34.3195 31.0924H37.66V31.5817C37.9294 31.2555 38.7375 30.875 39.4918 30.875C40.731 30.875 41.3237 31.2555 41.8086 31.9078L40.0845 34.5715C39.9228 34.2453 39.4379 34.0822 39.0069 34.0822C38.4681 34.0822 37.8755 34.2997 37.6061 35.3325V43.106H34.2656V31.0924H34.3195Z" fill="#313131"/>
<path d="M42.1332 32.6705C43.2646 31.4746 45.2043 30.8223 47.4133 30.8223C50.4843 30.8223 52.3162 32.6705 52.3162 35.8234V43.1077H48.9757V42.0205C48.4908 42.6184 47.1978 43.2707 45.743 43.2707C43.103 43.2707 41.3789 41.6943 41.3789 39.3568C41.3789 36.5844 43.9651 35.3885 46.8206 35.3885C47.6288 35.3885 48.4908 35.4972 48.9757 35.7147C48.9757 34.4644 48.3292 33.9752 47.0361 33.9752C45.743 33.9752 44.9887 34.247 43.7495 35.1167L42.1332 32.6705ZM48.9219 39.0306V38.487C48.5447 38.324 47.7904 38.1609 47.09 38.1609C45.743 38.1609 44.7732 38.487 44.7732 39.3568C44.7732 40.0091 45.3659 40.3897 46.3896 40.3897C47.521 40.3897 48.5447 39.7917 48.9219 39.0306Z" fill="#313131"/>
<path d="M62.3393 42.1853C61.9083 42.6746 60.8846 43.3269 59.3221 43.3269C56.0355 43.3269 53.7188 41.1525 53.7188 37.1298C53.7188 33.379 56.3588 30.8241 59.5376 30.8241C61.2078 30.8241 61.9621 31.1502 62.3393 31.422V26.2578H65.6797V43.1638H62.3393V42.1853ZM62.3393 38.7606V34.8467C61.9621 34.3575 61.3695 33.9226 60.238 33.9226C58.5139 33.9226 57.1131 35.0098 57.1131 37.0755C57.1131 39.0324 58.3523 40.174 60.0225 40.174C60.8846 40.174 61.9083 39.6304 62.3393 38.7606Z" fill="#313131"/>
<path d="M69.6123 26.2012C70.6899 26.2012 71.4981 26.9079 71.4981 27.8863C71.4981 28.8648 70.7438 29.6259 69.6123 29.6259C68.427 29.6259 67.7266 28.9192 67.7266 27.8863C67.7266 26.9622 68.4809 26.2012 69.6123 26.2012ZM67.9421 31.0936H71.2825V43.1615H67.9421V31.0936Z" fill="#313131"/>
<path d="M84.7525 42.0732C84.7525 46.0958 82.5973 47.9441 79.0953 47.9441C76.2936 47.9441 74.3001 46.6938 73.5458 44.6281L76.4552 43.3778C76.8324 44.1389 77.6405 44.7912 78.772 44.7912C80.7116 44.7912 81.412 43.9758 81.412 42.7255V42.1819C81.0349 42.7799 80.1728 43.2691 78.7181 43.2691C75.3777 43.2691 72.9531 41.1491 72.9531 37.0177C72.9531 33.1038 75.7548 30.875 78.7181 30.875C80.1728 30.875 80.8732 31.1468 81.412 31.5273V31.0381H84.7525V42.0732ZM81.412 38.8659V34.8433C81.0349 34.354 80.3883 34.0822 79.2569 34.0822C77.6944 34.0822 76.3475 35.1151 76.3475 37.1808C76.3475 39.1921 77.425 40.2249 79.2569 40.2249C80.3883 40.1706 81.1426 39.5726 81.412 38.8659Z" fill="#313131"/>
<path d="M103.826 43.1604H100.485V36.0936C100.485 34.952 100.162 34.0279 98.9226 34.0279C98.1683 34.0279 97.3601 34.5171 96.9291 35.4956V43.1604H93.5886V35.55C93.5886 34.6258 93.1037 34.0279 92.1878 34.0279C91.1102 34.0279 90.4098 34.6802 90.0865 35.4956V43.1604H86.7461V31.0924H90.0865V31.9078C90.7331 31.2012 91.8107 30.875 92.9421 30.875C94.2891 30.875 95.205 31.3099 96.0132 32.1796C96.9291 31.2555 97.7373 30.875 99.1381 30.875C102.101 30.875 103.772 32.3427 103.772 35.1151V43.1604H103.826Z" fill="#313131"/>
<path d="M105.871 32.6705C107.003 31.4746 108.943 30.8223 111.152 30.8223C114.223 30.8223 116.054 32.6705 116.054 35.8234V43.1077H112.714V42.0205C112.229 42.6184 110.936 43.2707 109.481 43.2707C106.841 43.2707 105.117 41.6943 105.117 39.3568C105.117 36.5844 107.703 35.3885 110.559 35.3885C111.367 35.3885 112.229 35.4972 112.714 35.7147C112.714 34.4644 112.067 33.9752 110.774 33.9752C109.481 33.9752 108.727 34.247 107.488 35.1167L105.871 32.6705ZM112.66 39.0306V38.487C112.283 38.324 111.529 38.1609 110.828 38.1609C109.481 38.1609 108.512 38.487 108.512 39.3568C108.512 40.0091 109.104 40.3897 110.128 40.3897C111.259 40.3897 112.283 39.7917 112.66 39.0306Z" fill="#313131"/>
<path d="M50.8611 12.6659V12.829C50.8611 19.7871 45.2039 25.4949 38.3075 25.4949H25.2689L18.1031 32.7248V18.265H38.3075C41.2708 18.265 43.6953 15.8188 43.6953 12.829V12.6659C43.6953 9.6761 41.2708 7.2299 38.3075 7.2299H7.16581L0 0H38.3075C45.2578 0 50.8611 5.70781 50.8611 12.6659Z" fill="#D51228"/>
<path d="M14.3299 18.2637V36.5287L7.16406 43.7586V18.2637H14.3299Z" fill="#D51228"/>
<path d="M50.8611 12.6659V12.829C50.8611 19.7871 45.2039 25.4949 38.3075 25.4949H25.2689L18.1031 32.7248V18.265H38.3075C41.2708 18.265 43.6953 15.8188 43.6953 12.829V12.6659C43.6953 9.6761 41.2708 7.2299 38.3075 7.2299H7.16581L0 0H38.3075C45.2578 0 50.8611 5.70781 50.8611 12.6659Z" fill="#D51228"/>
<path d="M110.242 20.1433H62.985C60.0088 20.1433 57.6133 17.912 57.6133 15.1398V8.1754C57.6133 5.40318 60.0088 3.17188 62.985 3.17188H110.242C113.218 3.17188 115.613 5.40318 115.613 8.1754V15.2074C115.613 17.912 113.218 20.1433 110.242 20.1433Z" fill="#D51228"/>
<path d="M65.932 13.4121V14.8181C65.546 14.9177 65.172 14.9674 64.8101 14.9674C64.0541 14.9674 63.467 14.7767 63.0488 14.3951C62.6306 14.0052 62.4214 13.4246 62.4214 12.6531V10.0776H61.4805V8.65914H62.4214V7.10384H64.0501V8.65914H65.739V10.0776H64.0501V12.5038C64.0501 12.8522 64.1385 13.1011 64.3155 13.2504C64.4924 13.3914 64.7739 13.4619 65.1599 13.4619C65.2565 13.4619 65.5138 13.4453 65.932 13.4121Z" fill="white"/>
<path d="M72.4857 12.3048H68.2996C68.3961 12.6946 68.5891 12.9974 68.8786 13.2131C69.1762 13.4204 69.5421 13.5241 69.9764 13.5241C70.5635 13.5241 71.1185 13.3167 71.6412 12.902L72.3168 14.0467C71.6091 14.6605 70.8129 14.9674 69.9282 14.9674C69.3089 14.9674 68.7499 14.8264 68.2513 14.5444C67.7527 14.2624 67.3626 13.8766 67.0811 13.3872C66.7996 12.8896 66.6589 12.3421 66.6589 11.7449C66.6589 11.1476 66.7956 10.6043 67.069 10.1149C67.3425 9.6172 67.7165 9.22734 68.191 8.94531C68.6735 8.66329 69.2044 8.52227 69.7834 8.52227C70.3303 8.52227 70.8169 8.65084 71.2431 8.90799C71.6694 9.15683 71.9991 9.50107 72.2324 9.94071C72.4737 10.372 72.5943 10.8531 72.5943 11.384C72.5943 11.6826 72.5581 11.9896 72.4857 12.3048ZM69.7231 9.87849C69.3773 9.87849 69.0757 9.99048 68.8183 10.2144C68.5609 10.4384 68.388 10.7412 68.2996 11.1227H71.0139C71.0059 10.7412 70.8772 10.4384 70.6279 10.2144C70.3786 9.99048 70.077 9.87849 69.7231 9.87849Z" fill="white"/>
<path d="M80.8138 8.52227C81.5135 8.52227 82.0644 8.75038 82.4666 9.2066C82.8687 9.65453 83.0698 10.2518 83.0698 10.9983V14.8181H81.4412V11.2347C81.4412 10.8697 81.3446 10.5794 81.1516 10.3637C80.9586 10.1481 80.7012 10.0402 80.3795 10.0402C80.0578 10.0402 79.7924 10.1481 79.5833 10.3637C79.3823 10.5794 79.2817 10.8573 79.2817 11.1974V14.8181H77.6531V11.2347C77.6531 10.8697 77.5566 10.5794 77.3636 10.3637C77.1705 10.1481 76.9132 10.0402 76.5915 10.0402C76.2617 10.0402 75.9963 10.1481 75.7953 10.3637C75.5942 10.5794 75.4937 10.8697 75.4937 11.2347V14.8181H73.8651V8.65914H75.361V9.2066C75.562 8.99094 75.8073 8.82504 76.0969 8.70891C76.3864 8.58448 76.7041 8.52227 77.0499 8.52227C77.8381 8.52227 78.4292 8.81674 78.8233 9.40568C79.0565 9.13195 79.342 8.91628 79.6798 8.75868C80.0257 8.60107 80.4037 8.52227 80.8138 8.52227Z" fill="white"/>
<path d="M88.0353 8.52227C88.5902 8.52227 89.0848 8.66329 89.5191 8.94531C89.9615 9.21905 90.3073 9.60061 90.5566 10.09C90.8059 10.5711 90.9306 11.1186 90.9306 11.7324C90.9306 12.3462 90.8059 12.8978 90.5566 13.3872C90.3073 13.8766 89.9615 14.2624 89.5191 14.5444C89.0848 14.8264 88.5902 14.9674 88.0353 14.9674C87.6734 14.9674 87.3396 14.9052 87.034 14.7808C86.7284 14.6481 86.467 14.4614 86.2498 14.2209V17.0578H84.6212V8.65914H86.1171V9.43057C86.3182 9.14024 86.5836 8.91628 86.9133 8.75868C87.2511 8.60107 87.6251 8.52227 88.0353 8.52227ZM87.7337 13.437C88.168 13.437 88.5339 13.2836 88.8315 12.9767C89.1291 12.6614 89.2778 12.2508 89.2778 11.7449C89.2778 11.2306 89.1291 10.82 88.8315 10.5131C88.542 10.1978 88.176 10.0402 87.7337 10.0402C87.3235 10.0402 86.9696 10.1854 86.6721 10.4757C86.3745 10.7578 86.2257 11.1767 86.2257 11.7324C86.2257 12.2799 86.3705 12.7029 86.66 13.0015C86.9576 13.2919 87.3155 13.437 87.7337 13.437Z" fill="white"/>
<path d="M92.2082 5.48633H93.8369V14.8181H92.2082V5.48633Z" fill="white"/>
<path d="M97.897 8.52227C98.6771 8.52227 99.2964 8.75038 99.7548 9.2066C100.221 9.65453 100.455 10.3057 100.455 11.1601V14.8181H98.9586V14.2209C98.7415 14.4531 98.4761 14.6356 98.1624 14.7684C97.8568 14.9011 97.515 14.9674 97.137 14.9674C96.5016 14.9674 95.999 14.7974 95.629 14.4573C95.259 14.1089 95.0741 13.6651 95.0741 13.126C95.0741 12.5702 95.2751 12.1347 95.6772 11.8195C96.0874 11.496 96.6383 11.3343 97.33 11.3343H98.8259V11.0605C98.8259 10.7204 98.7294 10.455 98.5364 10.2642C98.3514 10.0734 98.078 9.97803 97.716 9.97803C97.4104 9.97803 97.137 10.0485 96.8957 10.1896C96.6544 10.3223 96.4011 10.5338 96.1357 10.8241L95.2912 9.7914C95.9829 8.94531 96.8515 8.52227 97.897 8.52227ZM97.5713 13.7356C97.9251 13.7356 98.2227 13.6237 98.464 13.3997C98.7053 13.1674 98.8259 12.873 98.8259 12.5163V12.4416H97.5471C97.2817 12.4416 97.0767 12.4955 96.9319 12.6034C96.7871 12.7029 96.7147 12.8564 96.7147 13.0637C96.7147 13.2711 96.7911 13.437 96.944 13.5614C97.1048 13.6776 97.3139 13.7356 97.5713 13.7356Z" fill="white"/>
<path d="M105.858 13.4121V14.8181C105.472 14.9177 105.098 14.9674 104.736 14.9674C103.98 14.9674 103.393 14.7767 102.975 14.3951C102.557 14.0052 102.348 13.4246 102.348 12.6531V10.0776H101.407V8.65914H102.348V7.10384H103.976V8.65914H105.665V10.0776H103.976V12.5038C103.976 12.8522 104.065 13.1011 104.242 13.2504C104.419 13.3914 104.7 13.4619 105.086 13.4619C105.183 13.4619 105.44 13.4453 105.858 13.4121Z" fill="white"/>
<path d="M112.412 12.3048H108.226C108.322 12.6946 108.515 12.9974 108.805 13.2131C109.102 13.4204 109.468 13.5241 109.903 13.5241C110.49 13.5241 111.045 13.3167 111.567 12.902L112.243 14.0467C111.535 14.6605 110.739 14.9674 109.854 14.9674C109.235 14.9674 108.676 14.8264 108.177 14.5444C107.679 14.2624 107.289 13.8766 107.007 13.3872C106.726 12.8896 106.585 12.3421 106.585 11.7449C106.585 11.1476 106.722 10.6043 106.995 10.1149C107.269 9.6172 107.643 9.22734 108.117 8.94531C108.6 8.66329 109.131 8.52227 109.71 8.52227C110.256 8.52227 110.743 8.65084 111.169 8.90799C111.596 9.15683 111.925 9.50107 112.159 9.94071C112.4 10.372 112.52 10.8531 112.52 11.384C112.52 11.6826 112.484 11.9896 112.412 12.3048ZM109.649 9.87849C109.303 9.87849 109.002 9.99048 108.744 10.2144C108.487 10.4384 108.314 10.7412 108.226 11.1227H110.94C110.932 10.7412 110.803 10.4384 110.554 10.2144C110.305 9.99048 110.003 9.87849 109.649 9.87849Z" fill="white"/>
</g>
<defs>
<clipPath id="clip0_25_354">
<rect width="116" height="48" fill="white"/>
</clipPath>
</defs>
</svg>
