<svg width="11" height="13" viewBox="0 0 11 13" fill="none" xmlns="http://www.w3.org/2000/svg">
<path d="M9.24601 7.99626C8.86104 7.56063 8.36059 7.56063 7.95958 7.99626C7.65803 8.32385 7.35968 8.64795 7.05813 8.97554C6.97472 9.06615 6.90735 9.08358 6.8079 9.0313C6.62504 8.90584 6.4069 8.81523 6.22404 8.68629C5.35466 8.08687 4.62002 7.32365 3.96879 6.45588C3.65119 6.02025 3.36889 5.5672 3.16678 5.04097C3.1347 4.93293 3.1347 4.87717 3.21811 4.78656C3.5357 4.4764 3.81801 4.15229 4.11957 3.8247C4.53661 3.37165 4.53661 2.84541 4.11957 2.39236C3.86934 2.12053 3.63515 1.86612 3.40097 1.61172C3.15074 1.33989 2.91655 1.06806 2.66633 0.813651C2.28136 0.39545 1.78091 0.39545 1.3799 0.813651C1.07835 1.14124 0.78 1.46535 0.478445 1.79294C0.19293 2.1031 0.0453603 2.46555 0.0100719 2.88026C-0.0412566 3.55287 0.109521 4.20457 0.327667 4.83884C0.78 6.16314 1.46331 7.30622 2.28136 8.37612C3.40097 9.82937 4.73551 10.9725 6.29141 11.7879C6.99397 12.1504 7.71256 12.4396 8.47929 12.4954C9.03107 12.5303 9.49944 12.3699 9.8812 11.9134C10.1314 11.5858 10.433 11.314 10.6992 11.0073C11.1003 10.5543 11.1003 10.0106 10.6992 9.57496C10.2148 9.04873 9.73042 8.52249 9.24601 7.99626Z" fill="#D51228"/>
</svg>
