<svg width="34" height="19" viewBox="0 0 34 19" fill="none" xmlns="http://www.w3.org/2000/svg">
<path d="M11.728 18.6607L6.77615 12.0729H3.90932V18.6607H0V0H7.18156C8.51363 0 9.7009 0.254465 10.7434 0.763394C11.7859 1.25347 12.5967 1.96032 13.1759 2.88393C13.7743 3.78869 14.0735 4.83482 14.0735 6.02232C14.0735 7.20982 13.7743 8.26538 13.1759 9.18899C12.5774 10.1126 11.7569 10.8289 10.7144 11.3378L16.1296 18.6607H11.728ZM3.90932 8.70833H7.18156C8.08891 8.70833 8.79355 8.46329 9.29549 7.97321C9.81673 7.48313 10.0774 6.83284 10.0774 6.02232C10.0774 5.23065 9.81673 4.58978 9.29549 4.0997C8.77425 3.60962 8.06961 3.36458 7.18156 3.36458H3.90932V8.70833Z" fill="white"/>
<path d="M25.8918 19C24.328 19 22.9284 18.6796 21.6929 18.0387C20.4766 17.379 19.521 16.4459 18.826 15.2396C18.131 14.0144 17.7836 12.5818 17.7836 10.942V0H21.6929V11.2247C21.6929 12.5818 22.079 13.628 22.8512 14.3631C23.6427 15.0982 24.6562 15.4658 25.8918 15.4658C27.1466 15.4658 28.1601 15.0982 28.9324 14.3631C29.7046 13.628 30.0907 12.5818 30.0907 11.2247V0H34V10.942C34 12.5818 33.6428 14.0144 32.9286 15.2396C32.2336 16.4459 31.2683 17.379 30.0328 18.0387C28.8165 18.6796 27.4362 19 25.8918 19Z" fill="white"/>
</svg>
