<svg width="24" height="24" viewBox="0 0 24 24" fill="none" xmlns="http://www.w3.org/2000/svg">
<path fill-rule="evenodd" clip-rule="evenodd" d="M2 10C2 5.58172 5.58172 2 10 2C14.4183 2 18 5.58172 18 10C18 14.4183 14.4183 18 10 18C5.58172 18 2 14.4183 2 10ZM10 0C4.47715 0 0 4.47715 0 10C0 15.5228 4.47715 20 10 20C12.4015 20 14.6052 19.1535 16.3291 17.7426L22.2929 23.7063C22.6834 24.0969 23.3166 24.0969 23.7071 23.7063C24.0976 23.3158 24.0976 22.6827 23.7071 22.2921L17.7433 16.3283C19.1538 14.6045 20 12.4011 20 10C20 4.47715 15.5228 0 10 0Z" fill="white"/>
</svg>
