<svg width="31" height="27" viewBox="0 0 31 27" fill="none" xmlns="http://www.w3.org/2000/svg">
<path fill-rule="evenodd" clip-rule="evenodd" d="M0 15.5426C0 7.10644 6.83886 0.267578 15.275 0.267578C23.7112 0.267578 30.5501 7.10644 30.5501 15.5426C30.5501 19.7604 28.8389 23.5809 26.0761 26.3437C25.5574 26.8624 24.7164 26.8624 24.1976 26.3437C23.6789 25.8249 23.6789 24.9839 24.1977 24.4652C25.6946 22.9684 26.8164 21.099 27.4121 19.0079C27.3676 19.0023 27.323 18.9943 27.2783 18.984L24.6899 18.3865C23.9751 18.2214 23.5295 17.5082 23.6945 16.7934C23.8595 16.0787 24.5727 15.633 25.2875 15.798L27.8654 16.3932C27.8841 16.1121 27.8936 15.8285 27.8936 15.5426C27.8936 12.855 27.0533 10.3637 25.6213 8.31693L23.9044 9.70714C23.3343 10.1688 22.4979 10.0809 22.0363 9.51075C21.5746 8.94065 21.6625 8.10424 22.2327 7.6426L23.8774 6.31075C21.9278 4.49329 19.4019 3.28605 16.6038 2.99323V4.91647C16.6038 5.65005 16.0091 6.24474 15.2755 6.24474C14.5419 6.24474 13.9472 5.65005 13.9472 4.91647V2.99313C11.1482 3.28585 8.62138 4.49362 6.67138 6.31195L8.31464 7.6426C8.88474 8.10425 8.97266 8.94065 8.51102 9.51076C8.04937 10.0809 7.21296 10.1688 6.64286 9.70713L4.92783 8.31837C3.49635 10.3649 2.65653 12.8557 2.65653 15.5426C2.65653 15.8285 2.66602 16.1121 2.68471 16.3932L5.26274 15.798C5.97752 15.633 6.69074 16.0787 6.85576 16.7934C7.02078 17.5082 6.57511 18.2214 5.86033 18.3865L3.27188 18.984C3.22721 18.9944 3.18254 19.0023 3.13801 19.0079C3.73374 21.0991 4.85553 22.9684 6.3524 24.4652C6.87113 24.9839 6.87113 25.825 6.35242 26.3437C5.8337 26.8624 4.99269 26.8624 4.47397 26.3437C1.71117 23.5809 0 19.7604 0 15.5426ZM18.9705 10.8388C19.4548 10.6477 20.0062 10.7572 20.3807 11.1189C20.7553 11.4806 20.8839 12.0278 20.7098 12.5185L20.703 12.5378L20.6841 12.5906C20.6677 12.6365 20.6436 12.7034 20.6127 12.7887C20.551 12.9591 20.4619 13.203 20.3519 13.4986C20.1322 14.0891 19.8277 14.8898 19.4899 15.7262C19.1535 16.5593 18.7776 17.4439 18.4152 18.1964C18.2343 18.5722 18.0496 18.93 17.8685 19.2387C17.6985 19.5287 17.4896 19.8491 17.2497 20.0975C15.721 21.6807 13.1983 21.7247 11.6152 20.1959C10.0321 18.6671 9.98805 16.1445 11.5168 14.5614C11.7567 14.3131 12.0696 14.0931 12.3535 13.913C12.6557 13.7213 13.0068 13.5242 13.3761 13.3302C14.1155 12.9418 14.9864 12.5353 15.8073 12.17C16.6314 11.8032 17.421 11.4709 18.0035 11.2308C18.2951 11.1105 18.5357 11.013 18.7039 10.9453C18.788 10.9115 18.854 10.8851 18.8994 10.8671L18.9515 10.8464L18.9705 10.8388ZM17.1225 14.4929C17.0445 14.5273 16.9661 14.562 16.8874 14.597C16.0892 14.9522 15.2775 15.3322 14.6115 15.682C14.2781 15.8572 13.9958 16.0172 13.7766 16.1562C13.6675 16.2254 13.5823 16.2842 13.5187 16.3322C13.4554 16.38 13.4298 16.4049 13.4279 16.4067C12.9183 16.9344 12.9328 17.7754 13.4606 18.285C13.9882 18.7945 14.8291 18.7799 15.3387 18.2522L15.3388 18.2521C15.3406 18.2501 15.3645 18.2237 15.4101 18.1586C15.4559 18.0934 15.5117 18.0062 15.577 17.8948C15.7083 17.6709 15.8584 17.3832 16.0218 17.0439C16.3482 16.3661 16.6995 15.5416 17.0267 14.7315C17.0589 14.6516 17.0909 14.572 17.1225 14.4929Z" fill="white"/>
</svg>
