<svg width="1057" height="335" viewBox="0 0 1057 335" fill="none" xmlns="http://www.w3.org/2000/svg">
<path d="M1056.26 333.388C1056.43 333.602 1056.4 333.917 1056.19 334.092C1055.97 334.266 1055.66 334.234 1055.49 334.02L1056.26 333.388ZM-23.9295 112.807C-23.9155 113.083 -24.1275 113.318 -24.4035 113.332C-24.6795 113.346 -24.9144 113.134 -24.9284 112.858L-23.9295 112.807ZM487.081 39.3471C466.431 69.1211 472.481 104.767 489.211 138.77C505.941 172.763 533.292 204.974 554.982 227.735L554.252 228.425C532.542 205.642 505.112 173.343 488.312 139.212C471.522 105.091 465.302 69.0011 486.262 38.7771L487.081 39.3471ZM169.102 84.3831C179.862 145.552 227.292 203.396 277.322 243.712L276.691 244.49C226.591 204.111 178.942 146.073 168.112 84.5561L169.102 84.3831ZM334.062 246.125C324.802 214.481 301.072 185.664 276.191 162.609L276.872 161.875C301.802 184.974 325.682 213.941 335.022 245.844L334.062 246.125ZM277.322 243.712C286.191 250.862 304.112 263.569 317.992 268.364C321.452 269.561 324.632 270.253 327.342 270.256C330.042 270.259 332.222 269.576 333.762 268.075C335.312 266.572 336.292 264.173 336.422 260.58C336.562 256.984 335.852 252.241 334.062 246.125L335.022 245.844C336.822 252.012 337.562 256.871 337.422 260.618C337.282 264.366 336.252 267.049 334.462 268.791C332.672 270.535 330.202 271.259 327.342 271.256C324.482 271.253 321.182 270.524 317.662 269.309C303.612 264.454 285.582 251.651 276.691 244.49L277.322 243.712ZM654.441 237.573C563.571 141.131 445.402 71.2731 321.562 23.2511L321.922 22.3188C445.862 70.3791 564.172 140.309 655.172 236.887L654.441 237.573ZM554.982 227.735C574.492 248.214 597.902 266.874 620.182 281.381C642.482 295.894 663.611 306.227 678.571 310.081C686.081 312.013 691.922 312.286 695.581 310.753C697.381 309.996 698.651 308.805 699.341 307.147C700.042 305.474 700.182 303.274 699.632 300.471C698.512 294.855 694.642 286.997 687.312 276.584C679.982 266.183 669.241 253.278 654.441 237.573L655.172 236.887C669.982 252.611 680.762 265.555 688.122 276.008C695.482 286.449 699.452 294.448 700.612 300.277C701.182 303.197 701.062 305.615 700.262 307.532C699.462 309.463 697.982 310.83 695.971 311.675C691.982 313.344 685.861 312.99 678.321 311.049C663.211 307.156 641.972 296.757 619.642 282.219C597.302 267.677 573.832 248.968 554.252 228.425L554.982 227.735ZM276.191 162.609C256.061 143.957 201.192 106.115 143.603 78.1781C114.811 64.2111 85.3686 52.7341 59.2696 47.3641C33.1476 41.9901 10.4935 42.7581 -4.82646 53.1261L-5.38646 52.2971C10.2805 41.6951 33.2805 40.9961 59.4705 46.3851C85.6845 51.7781 115.212 63.2941 144.039 77.2791C201.692 105.245 256.652 143.138 276.872 161.875L276.191 162.609ZM-4.82646 53.1261C-12.1125 58.0571 -17.2294 66.3571 -20.3554 76.7611C-23.4804 87.1611 -24.6025 99.6231 -23.9295 112.807L-24.9284 112.858C-25.6044 99.5941 -24.4795 87.0121 -21.3125 76.4731C-18.1475 65.9371 -12.9285 57.4011 -5.38646 52.2971L-4.82646 53.1261ZM1055.49 334.02C1019.11 289.393 899.732 182.781 778.002 103.815C717.142 64.3331 655.732 31.7902 603.841 17.354C551.922 2.90832 509.761 6.64553 487.081 39.3471L486.262 38.7771C509.342 5.50993 552.112 1.92262 604.112 16.3905C656.141 30.8678 717.662 63.4761 778.552 102.976C900.332 181.976 1019.8 288.654 1056.26 333.388L1055.49 334.02ZM321.562 23.2511C304.722 16.719 285.502 10.2513 266.462 5.98652C247.412 1.72042 228.582 -0.333675 212.492 1.93582C196.422 4.20402 183.132 10.7813 175.082 23.74C167.022 36.7151 164.132 56.1881 169.102 84.3831L168.112 84.5561C163.132 56.2441 165.982 36.4841 174.232 23.2121C182.492 9.92402 196.092 3.24042 212.352 0.945621C228.612 -1.34798 247.582 0.732722 266.682 5.01072C285.782 9.29012 305.052 15.776 321.922 22.3188L321.562 23.2511Z" fill="#313131"/>
</svg>
