<svg width="17" height="16" viewBox="0 0 17 16" fill="none" xmlns="http://www.w3.org/2000/svg">
<path d="M8.50469 0.0507812C4.25379 0.0507812 0.804688 3.49988 0.804688 7.75078C0.804688 9.45293 1.35565 11.0207 2.28735 12.2973L1.30637 15.1999L4.36577 14.2458C5.56176 15.0073 6.98171 15.4508 8.50469 15.4508C12.7556 15.4508 16.2047 12.0017 16.2047 7.75078C16.2047 3.49988 12.7556 0.0507812 8.50469 0.0507812ZM12.0299 11.8807C10.6324 12.4407 8.96606 11.8987 7.14297 10.5145C5.31987 9.13042 4.11941 7.1819 4.03878 5.73507C3.95815 4.28825 5.13622 3.55811 5.77676 3.56259C6.41731 3.56707 7.12057 5.61413 7.12953 5.92769C7.13849 6.24572 6.34564 6.81012 6.31429 7.07888C6.28293 7.34764 7.39381 8.67353 7.86414 9.03188C8.32999 9.38574 9.29305 10.0666 9.79026 10.0039C10.283 9.9367 10.61 8.94677 10.9235 8.88406C11.2371 8.82135 12.9482 9.67242 13.1184 9.89191C13.2886 10.1159 13.2707 11.388 12.0299 11.8807Z" fill="white"/>
</svg>
